<svg id="Layer_1" data-name="Layer 1" xmlns="http://www.w3.org/2000/svg" viewBox="0 0 259.25 259.25">
  <defs>
    <style>
      .cls-1 {
        fill: #1abc9c;
      }

      .cls-2 {
        fill: #9b59b6;
      }

      .cls-3 {
        fill: #e91e63;
      }
    </style>
  </defs>
  <path class="cls-3" d="m129.62,30c54.93,0,99.62,44.69,99.62,99.62s-44.69,99.62-99.62,99.62S30,184.56,30,129.62,74.69,30,129.62,30m0-30C58.04,0,0,58.04,0,129.62s58.04,129.62,129.62,129.62,129.62-58.04,129.62-129.62S201.21,0,129.62,0h0Z"/>
  <g>
    <g>
      <path class="cls-1" d="m58.58,118.41c-5.5,0-9.97-4.47-9.97-9.97s4.47-9.97,9.97-9.97h141.09c5.5,0,9.97,4.47,9.97,9.97s-4.47,9.97-9.97,9.97H58.58Z"/>
      <path class="cls-1" d="m199.67,98.97c5.22,0,9.47,4.25,9.47,9.47s-4.25,9.47-9.47,9.47H58.58c-5.22,0-9.47-4.25-9.47-9.47s4.25-9.47,9.47-9.47h141.09m0-1H58.58c-5.78,0-10.47,4.69-10.47,10.47h0c0,5.78,4.69,10.47,10.47,10.47h141.09c5.78,0,10.47-4.69,10.47-10.47h0c0-5.78-4.69-10.47-10.47-10.47h0Z"/>
    </g>
    <g>
      <path class="cls-1" d="m199.83,118.21c-2.61,0-5.06-1.02-6.9-2.86l-30.34-30.34c-3.81-3.81-3.81-10,0-13.81,1.84-1.84,4.29-2.86,6.9-2.86s5.06,1.02,6.9,2.86l30.34,30.34c3.81,3.81,3.81,10,0,13.81-1.84,1.84-4.29,2.86-6.9,2.86Z"/>
      <path class="cls-1" d="m169.48,68.84c2.47,0,4.8.96,6.55,2.71l30.34,30.34c1.75,1.75,2.71,4.08,2.71,6.55s-.96,4.8-2.71,6.55c-1.75,1.75-4.08,2.71-6.55,2.71s-4.8-.96-6.55-2.71l-30.34-30.34c-1.75-1.75-2.71-4.08-2.71-6.55s.96-4.8,2.71-6.55c1.75-1.75,4.08-2.71,6.55-2.71m0-1c-2.63,0-5.25,1-7.26,3.01-4.01,4.01-4.01,10.5,0,14.51l30.34,30.34c2,2,4.63,3.01,7.26,3.01s5.25-1,7.26-3.01h0c4.01-4.01,4.01-10.5,0-14.51l-30.34-30.34c-2-2-4.63-3.01-7.26-3.01h0Z"/>
    </g>
  </g>
  <g>
    <rect class="cls-2" x="49.11" y="140.34" width="162.03" height="20.94" rx="10.47" ry="10.47"/>
    <rect class="cls-2" x="64.33" y="134.26" width="20.52" height="63.44" rx="10.26" ry="10.26" transform="translate(-95.52 101.36) rotate(-45)"/>
  </g>
</svg>